<?xml version="1.0" standalone="no"?>
<!DOCTYPE svg PUBLIC "-//W3C//DTD SVG 1.0//EN" "http://www.w3.org/TR/2001/REC-SVG-20010904/DTD/svg10.dtd">
<svg xmlns="http://www.w3.org/2000/svg" xmlns:xlink="http://www.w3.org/1999/xlink" id="body_1" width="300" height="383">

<g transform="matrix(1.1712539 0 0 1.1712539 0.1590243 -0)">
    <path d="M69.298 0.005C 67.645 0.055999998 65.865 0.667 63.844997 2.2600002C 58.9 0.353 54.102 -0.31 49.813 3.573C 43.19 2.714 41.038002 4.487 39.406998 6.557C 37.953 6.527 28.527998 5.0620003 24.204998 11.51C 13.343 10.225 9.91 17.899 13.8 25.056C 11.581 28.49 9.282 31.883 14.47 38.431C 12.635 42.077 13.773001 46.033 18.096 50.82C 16.956001 55.947 19.198 59.563 23.221 62.382C 22.468 69.397 29.654001 73.476 31.799 74.929C 32.623 79.016 34.34 82.874 42.547 85.006C 43.901 91.098 48.833 92.149994 53.61 93.42799C 37.823 102.604996 24.285 114.67799 24.377 144.303L24.377 144.303L22.064001 148.428C 3.9620018 159.43599 -12.323999 194.818 13.144001 223.57599C 14.807001 232.57799 17.597 239.04399 20.081001 246.19998C 23.796001 275.03598 48.043 288.53897 54.439003 290.136C 63.810005 297.274 73.791 304.047 87.299 308.792C 100.03001 321.923 113.824005 326.92798 127.69301 326.91998C 127.89701 326.91998 155.97 321.92398 168.703 308.792C 182.209 304.047 192.19 297.274 201.563 290.136C 207.957 288.539 232.20401 275.03598 235.919 246.19998C 238.403 239.04398 241.19301 232.57799 242.85701 223.57599C 268.323 194.81499 252.03801 159.43199 233.93701 148.42398L233.93701 148.42398L231.62001 144.29898C 231.712 114.67698 218.17401 102.60298 202.38701 93.42398C 207.16301 92.14598 212.09702 91.09398 213.449 85.00198C 221.656 82.86898 223.37401 79.011986 224.197 74.92499C 226.343 73.471985 233.528 69.39299 232.77701 62.377987C 236.798 59.558987 239.04102 55.941986 237.90001 50.815987C 242.22401 46.028988 243.36101 42.072987 241.52602 38.425987C 246.71602 31.881987 244.41301 28.488987 242.19702 25.054987C 246.08502 17.897987 242.65402 10.222987 231.78802 11.508987C 227.46802 5.0609875 218.04402 6.524987 216.58603 6.5549874C 214.95602 4.4859877 212.80403 2.7129874 206.18103 3.5719874C 201.89203 -0.3110125 197.09602 0.35098743 192.14903 2.2589874C 186.27504 -2.3760128 182.38904 1.3389874 177.94904 2.7439876C 170.83704 0.41998768 169.21004 3.6029875 165.71603 4.899987C 157.96004 3.2609873 155.60303 6.828987 151.88603 10.594988L151.88603 10.594988L147.56003 10.508987C 135.86203 17.402988 130.05003 31.440987 127.99003 38.65799C 125.93003 31.43999 120.13103 17.401989 108.43503 10.508989L108.43503 10.508989L104.11003 10.59499C 100.38703 6.82899 98.03103 3.2609897 90.27503 4.8999896C 86.78 3.603 85.16 0.42 78.042 2.744C 75.128 1.822 72.448 -0.0940001 69.293 0.0039999485L69.293 0.0039999485L-11 141" stroke="none" fill="#000000" fill-rule="nonzero" />
    <path d="M46.008 30.334C 77.044 46.335 95.087 59.279 104.972 70.303C 99.91 90.592 73.502 91.518005 63.846 90.949005C 65.823 90.02901 67.473 88.926 68.058 87.233C 65.635 85.511 57.044 87.051 51.045998 83.682C 53.35 83.204 54.427998 82.739 55.504997 81.039C 49.838997 79.232 43.734997 77.674 40.144997 74.68C 42.081997 74.704 43.890995 75.114 46.420998 73.359C 41.345997 70.624 35.929996 68.456 31.721996 64.275C 34.345997 64.211 37.174995 64.249 37.997997 63.284C 33.352997 60.406002 29.432999 57.206 26.188997 53.705C 29.860996 54.148003 31.411997 53.767002 32.299995 53.127003C 28.787994 49.530003 24.343996 46.493004 22.224995 42.061005C 24.950994 43.001003 27.445995 43.361004 29.243996 41.979004C 28.050995 39.287003 22.938995 37.699005 19.994995 31.408005C 22.865995 31.687004 25.909996 32.034004 26.518995 31.408005C 25.186995 25.980005 22.900995 22.928005 20.658995 19.766005C 26.801994 19.675005 36.109993 19.790005 35.688995 19.271004L35.688995 19.271004L31.89 15.39C 37.891 13.774 44.031 15.649 48.489 17.041C 50.489998 15.462 48.453 13.465 46.010998 11.426001C 51.110996 12.107 55.718998 13.279 59.885 14.894001C 62.109997 12.885001 58.44 10.875001 56.663998 8.866001C 64.543 10.360001 67.881 12.461001 71.198 14.564001C 73.604996 12.257001 71.336 10.296001 69.712 8.288001C 75.653 10.488001 78.713 13.329 81.934 16.133001C 83.026 14.659001 84.709 13.578001 82.676994 10.022001C 86.895 12.453001 90.07199 15.318001 92.422 18.528C 95.032 16.866 93.977 14.594 93.991 12.499001C 98.375 16.065 101.157 19.86 104.562 23.565C 105.24799 23.065 105.848 21.372 106.379 18.693C 116.836 28.838001 131.61299 54.393 110.176994 64.525C 91.93399 49.479004 70.145996 38.542 46.00099 30.338001L46.00099 30.338001L46.00799 30.334002zM210.686 30.334C 179.654 46.336998 161.61101 59.277 151.727 70.303C 156.789 90.592 183.196 91.518005 192.852 90.949005C 190.875 90.02901 189.225 88.926 188.641 87.233C 191.06401 85.511 199.655 87.051 205.65201 83.682C 203.348 83.204 202.27101 82.739 201.19301 81.039C 206.86002 79.232 212.964 77.674 216.55301 74.68C 214.61601 74.704 212.807 75.114 210.27701 73.359C 215.35301 70.624 220.76901 68.456 224.977 64.275C 222.352 64.211 219.52301 64.249 218.701 63.284C 223.34601 60.406002 227.266 57.206 230.51001 53.705C 226.837 54.148003 225.287 53.767002 224.39902 53.127003C 227.91002 49.530003 232.35501 46.493004 234.47401 42.061005C 231.74701 43.001003 229.25201 43.361004 227.45401 41.979004C 228.647 39.287003 233.76001 37.699005 236.703 31.408005C 233.83301 31.687004 230.78801 32.034004 230.179 31.408005C 231.514 25.978004 233.8 22.926004 236.042 19.764004C 229.899 19.673004 220.591 19.788004 221.01201 19.269003L221.01201 19.269003L224.811 15.387003C 218.81 13.772003 212.67 15.647003 208.212 17.039003C 206.211 15.460003 208.24701 13.463003 210.68901 11.424004C 205.59001 12.104004 200.98102 13.277003 196.81601 14.892004C 194.59001 12.883004 198.26102 10.873004 200.037 8.864004C 192.158 10.358004 188.82 12.459004 185.502 14.562004C 183.095 12.255004 185.365 10.294004 186.989 8.286004C 181.048 10.486004 177.98799 13.3270035 174.767 16.131004C 173.674 14.657004 171.992 13.576004 174.023 10.020004C 169.806 12.451004 166.629 15.316004 164.27899 18.526005C 161.66899 16.864004 162.724 14.591005 162.70999 12.497005C 158.32599 16.063005 155.54399 19.857006 152.13899 23.563005C 151.45299 23.063005 150.853 21.370005 150.32199 18.690006C 139.86499 28.836006 125.08799 54.391006 146.52399 64.52301C 164.75699 49.47301 186.54399 38.53801 210.68999 30.334011L210.68999 30.334011L210.68599 30.334011" stroke="none" fill="#75A928" fill-rule="nonzero" />
    <path d="M165.933 236.933C 166.041 255.866 149.484 271.29498 128.953 271.39398C 108.421005 271.494 91.689 256.227 91.581 237.29398C 91.579994 237.17368 91.579994 237.05328 91.581 236.93298C 91.473 218.00098 108.029 202.57199 128.561 202.47198C 149.093 202.37198 165.824 217.63898 165.93301 236.57199L165.93301 236.57199L165.93301 236.93298zM107.246 139.004C 122.65 149.097 125.427 171.97299 113.448006 190.099C 101.46901 208.226 79.27101 214.74 63.867004 204.648C 48.463005 194.555 45.687004 171.67899 57.665005 153.553C 69.644005 135.426 91.842 128.91199 107.246 139.004M148.822 137.177C 133.419 147.269 130.642 170.146 142.62001 188.272C 154.59901 206.399 176.79701 212.91301 192.20102 202.82C 207.60503 192.72801 210.38202 169.852 198.40302 151.725C 186.42502 133.599 164.22702 127.08501 148.82202 137.177M30.258 155.504C 46.889 151.04599 35.873 224.307 22.341 218.29599C 7.4559994 206.32399 2.6619987 171.26299 30.258 155.504M222.453 154.591C 205.82 150.134 216.838 223.39801 230.37 217.38701C 245.25499 205.414 250.049 170.34901 222.453 154.591M165.946 100.034C 194.647 95.187996 218.52899 112.24 217.565 143.362C 216.621 155.294 155.37201 101.811005 165.946 100.034M86.646 99.121C 57.943005 94.274 34.063004 111.33 35.027004 142.45C 35.971004 154.381 97.22101 100.897995 86.646 99.121M127.874 91.863C 110.744 91.417 94.304 104.576 94.264 112.209C 94.217 121.483 107.808 130.979 127.991 131.22C 148.601 131.367 161.75299 123.619 161.819 114.048004C 161.895 103.204 143.074 91.69501 127.874 91.862L127.874 91.862L127.874 91.863zM128.92 282.043C 143.855 281.391 163.89499 286.853 163.935 294.1C 164.183 301.13602 145.76 317.034 127.92999 316.72702C 109.46399 317.52402 91.356995 301.601 91.593994 296.08203C 91.31699 287.99002 114.077995 281.67203 128.92 282.04303M73.756 239.098C 84.389 251.908 89.237 274.414 80.363 281.049C 71.968 286.114 51.581 284.028 37.091 263.211C 27.318 245.743 28.577 227.968 35.439 222.746C 45.699997 216.496 61.554 224.939 73.757 239.098L73.757 239.098L73.756004 239.098zM181.956 235.037C 170.45099 248.51201 164.045 273.09 172.437 281.006C 180.46199 287.156 202.004 286.29602 217.916 264.217C 229.47 249.38802 225.599 224.62302 218.999 218.04701C 209.19499 210.46402 195.12 220.169 181.956 235.03302L181.956 235.03302L181.956 235.03702" stroke="none" fill="#BC1142" fill-rule="nonzero" />
</g>
</svg>