<?xml version="1.0" encoding="UTF-8"?>
<svg xmlns="http://www.w3.org/2000/svg" xmlns:xlink="http://www.w3.org/1999/xlink" width="300px" height="300px" viewBox="0 0 300 300" version="1.1">
<g id="surface1">
<path style=" stroke:none;fill-rule:nonzero;fill:rgb(0%,0%,0%);fill-opacity:1;" d="M 81.207031 0.00390625 C 79.273438 0.0507812 77.1875 0.613281 74.820312 2.074219 C 69.023438 0.324219 63.402344 -0.285156 58.375 3.277344 C 50.613281 2.488281 48.089844 4.117188 46.179688 6.015625 C 44.476562 5.988281 33.429688 4.644531 28.363281 10.558594 C 15.636719 9.378906 11.613281 16.417969 16.171875 22.984375 C 13.570312 26.136719 10.878906 29.246094 16.957031 35.253906 C 14.808594 38.597656 16.140625 42.226562 21.207031 46.621094 C 19.871094 51.324219 22.496094 54.640625 27.210938 57.226562 C 26.328125 63.660156 34.75 67.402344 37.265625 68.734375 C 38.230469 72.484375 40.242188 76.023438 49.859375 77.980469 C 51.445312 83.566406 57.226562 84.535156 62.824219 85.707031 C 44.324219 94.125 28.460938 105.199219 28.566406 132.375 L 25.855469 136.160156 C 4.644531 146.257812 -14.441406 178.714844 15.402344 205.097656 C 17.351562 213.355469 20.621094 219.285156 23.53125 225.851562 C 27.886719 252.300781 56.300781 264.6875 63.796875 266.15625 C 74.777344 272.703125 86.472656 278.914062 102.304688 283.269531 C 117.222656 295.3125 133.386719 299.90625 149.640625 299.898438 C 149.878906 299.898438 182.777344 295.316406 197.699219 283.269531 C 213.527344 278.914062 225.222656 272.703125 236.207031 266.15625 C 243.699219 264.6875 272.113281 252.300781 276.46875 225.851562 C 279.378906 219.285156 282.648438 213.355469 284.597656 205.097656 C 314.441406 178.710938 295.355469 146.253906 274.144531 136.15625 L 271.429688 132.371094 C 271.539062 105.199219 255.671875 94.121094 237.171875 85.703125 C 242.769531 84.53125 248.550781 83.566406 250.136719 77.976562 C 259.753906 76.019531 261.765625 72.480469 262.730469 68.730469 C 265.246094 67.398438 273.664062 63.65625 272.785156 57.222656 C 277.496094 54.636719 280.125 51.316406 278.789062 46.617188 C 283.855469 42.222656 285.1875 38.59375 283.039062 35.25 C 289.121094 29.246094 286.421875 26.132812 283.824219 22.984375 C 288.382812 16.417969 284.359375 9.378906 271.625 10.558594 C 266.5625 4.644531 255.519531 5.984375 253.8125 6.011719 C 251.902344 4.113281 249.378906 2.488281 241.617188 3.277344 C 236.59375 -0.285156 230.972656 0.320312 225.175781 2.074219 C 218.289062 -2.179688 213.738281 1.226562 208.535156 2.515625 C 200.199219 0.386719 198.292969 3.304688 194.199219 4.496094 C 185.109375 2.992188 182.347656 6.265625 177.992188 9.71875 L 172.921875 9.640625 C 159.214844 15.964844 152.402344 28.84375 149.988281 35.460938 C 147.574219 28.839844 140.777344 15.964844 127.070312 9.640625 L 122.003906 9.71875 C 117.640625 6.265625 114.878906 2.992188 105.789062 4.496094 C 101.695312 3.304688 99.796875 0.386719 91.457031 2.515625 C 88.039062 1.671875 84.898438 -0.0859375 81.203125 0.00390625 L -12.890625 129.34375 "/>
<path style=" stroke:none;fill-rule:nonzero;fill:rgb(45.882353%,66.27451%,15.686275%);fill-opacity:1;" d="M 53.914062 27.828125 C 90.285156 42.503906 111.429688 54.378906 123.015625 64.492188 C 117.082031 83.105469 86.136719 83.953125 74.820312 83.429688 C 77.136719 82.585938 79.070312 81.574219 79.753906 80.023438 C 76.914062 78.441406 66.847656 79.855469 59.820312 76.765625 C 62.519531 76.328125 63.78125 75.898438 65.046875 74.339844 C 58.40625 72.683594 51.253906 71.253906 47.046875 68.507812 C 49.316406 68.527344 51.433594 68.90625 54.398438 67.296875 C 48.453125 64.785156 42.105469 62.796875 37.175781 58.960938 C 40.25 58.902344 43.566406 58.9375 44.527344 58.054688 C 39.085938 55.414062 34.492188 52.476562 30.691406 49.265625 C 34.992188 49.671875 36.8125 49.324219 37.851562 48.734375 C 33.734375 45.4375 28.527344 42.648438 26.046875 38.585938 C 29.238281 39.445312 32.164062 39.777344 34.269531 38.507812 C 32.871094 36.039062 26.882812 34.582031 23.433594 28.8125 C 26.796875 29.066406 30.363281 29.386719 31.078125 28.8125 C 29.515625 23.832031 26.835938 21.03125 24.210938 18.132812 C 31.410156 18.046875 42.316406 18.152344 41.824219 17.679688 L 37.371094 14.117188 C 44.402344 12.636719 51.597656 14.355469 56.824219 15.632812 C 59.167969 14.183594 56.78125 12.351562 53.917969 10.480469 C 59.894531 11.105469 65.296875 12.179688 70.179688 13.664062 C 72.785156 11.820312 68.484375 9.976562 66.402344 8.132812 C 75.636719 9.503906 79.546875 11.429688 83.433594 13.359375 C 86.257812 11.242188 83.597656 9.445312 81.695312 7.601562 C 88.65625 9.621094 92.242188 12.226562 96.015625 14.800781 C 97.296875 13.449219 99.269531 12.457031 96.886719 9.195312 C 101.828125 11.421875 105.554688 14.050781 108.308594 16.996094 C 111.367188 15.472656 110.128906 13.386719 110.144531 11.464844 C 115.28125 14.738281 118.542969 18.21875 122.535156 21.617188 C 123.335938 21.160156 124.039062 19.605469 124.664062 17.148438 C 136.917969 26.453125 154.234375 49.898438 129.113281 59.191406 C 107.734375 45.390625 82.203125 35.355469 53.90625 27.832031 L 53.914062 27.828125 M 246.898438 27.828125 C 210.53125 42.507812 189.386719 54.378906 177.804688 64.492188 C 183.738281 83.105469 214.683594 83.953125 226 83.429688 C 223.679688 82.585938 221.75 81.574219 221.0625 80.023438 C 223.902344 78.441406 233.96875 79.855469 241 76.765625 C 238.296875 76.328125 237.035156 75.898438 235.773438 74.339844 C 242.414062 72.683594 249.566406 71.253906 253.773438 68.507812 C 251.503906 68.527344 249.382812 68.90625 246.417969 67.296875 C 252.367188 64.785156 258.714844 62.796875 263.644531 58.960938 C 260.570312 58.902344 257.253906 58.9375 256.289062 58.054688 C 261.734375 55.414062 266.328125 52.476562 270.128906 49.265625 C 265.824219 49.671875 264.007812 49.324219 262.96875 48.734375 C 267.082031 45.4375 272.289062 42.648438 274.773438 38.585938 C 271.578125 39.445312 268.65625 39.777344 266.546875 38.507812 C 267.945312 36.039062 273.9375 34.582031 277.386719 28.8125 C 274.023438 29.066406 270.453125 29.386719 269.742188 28.8125 C 271.304688 23.832031 273.984375 21.03125 276.613281 18.128906 C 269.414062 18.046875 258.503906 18.152344 259 17.675781 L 263.449219 14.113281 C 256.417969 12.632812 249.222656 14.355469 244 15.628906 C 241.652344 14.183594 244.039062 12.351562 246.902344 10.480469 C 240.925781 11.105469 235.523438 12.179688 230.644531 13.660156 C 228.035156 11.816406 232.335938 9.972656 234.417969 8.132812 C 225.183594 9.5 221.273438 11.429688 217.386719 13.359375 C 214.5625 11.242188 217.222656 9.441406 219.128906 7.601562 C 212.164062 9.621094 208.578125 12.226562 204.804688 14.796875 C 203.523438 13.445312 201.554688 12.453125 203.933594 9.191406 C 198.992188 11.421875 195.269531 14.050781 192.515625 16.996094 C 189.457031 15.46875 190.691406 13.386719 190.675781 11.464844 C 185.539062 14.734375 182.277344 18.214844 178.289062 21.617188 C 177.484375 21.15625 176.78125 19.605469 176.160156 17.144531 C 163.902344 26.453125 146.585938 49.894531 171.707031 59.191406 C 193.074219 45.382812 218.605469 35.351562 246.902344 27.828125 L 246.898438 27.828125 "/>
<path style=" stroke:none;fill-rule:nonzero;fill:rgb(73.72549%,6.666667%,25.882353%);fill-opacity:1;" d="M 194.453125 217.347656 C 194.578125 234.71875 175.175781 248.871094 151.117188 248.960938 C 127.054688 249.054688 107.449219 235.046875 107.320312 217.679688 C 107.320312 217.570312 107.320312 217.460938 107.320312 217.347656 C 107.195312 199.980469 126.597656 185.828125 150.65625 185.738281 C 174.71875 185.644531 194.324219 199.648438 194.453125 217.019531 L 194.453125 217.347656 M 125.679688 127.515625 C 143.730469 136.773438 146.984375 157.757812 132.945312 174.386719 C 118.910156 191.015625 92.894531 196.992188 74.84375 187.734375 C 56.792969 178.472656 53.539062 157.488281 67.578125 140.859375 C 81.613281 124.230469 107.628906 118.257812 125.679688 127.515625 M 174.402344 125.839844 C 156.351562 135.097656 153.097656 156.082031 167.132812 172.710938 C 181.171875 189.339844 207.183594 195.3125 225.234375 186.054688 C 243.289062 176.796875 246.542969 155.8125 232.503906 139.183594 C 218.46875 122.554688 192.453125 116.582031 174.402344 125.839844 M 35.457031 142.652344 C 54.949219 138.5625 42.039062 205.765625 26.179688 200.253906 C 8.738281 189.269531 3.121094 157.105469 35.457031 142.652344 M 260.6875 141.8125 C 241.195312 137.722656 254.105469 204.933594 269.964844 199.417969 C 287.40625 188.433594 293.027344 156.269531 260.6875 141.8125 M 194.46875 91.765625 C 228.101562 87.320312 256.089844 102.960938 254.960938 131.511719 C 253.851562 142.457031 182.078125 93.394531 194.46875 91.765625 M 101.539062 90.929688 C 67.902344 86.480469 39.917969 102.128906 41.046875 130.675781 C 42.152344 141.621094 113.929688 92.558594 101.539062 90.929688 M 149.851562 84.269531 C 129.777344 83.859375 110.511719 95.933594 110.464844 102.933594 C 110.410156 111.441406 126.335938 120.152344 149.988281 120.375 C 174.140625 120.507812 189.554688 113.402344 189.632812 104.621094 C 189.71875 94.671875 167.664062 84.117188 149.851562 84.269531 M 151.078125 258.730469 C 168.582031 258.132812 192.0625 263.144531 192.109375 269.789062 C 192.402344 276.246094 170.8125 290.828125 149.917969 290.546875 C 128.277344 291.277344 107.058594 276.671875 107.335938 271.609375 C 107.011719 264.1875 133.683594 258.390625 151.078125 258.730469 M 86.433594 219.335938 C 98.894531 231.085938 104.574219 251.730469 94.175781 257.820312 C 84.335938 262.464844 60.445312 260.550781 43.464844 241.453125 C 32.011719 225.429688 33.488281 209.125 41.53125 204.335938 C 53.554688 198.601562 72.132812 206.347656 86.433594 219.335938 M 213.230469 215.609375 C 199.746094 227.972656 192.242188 250.515625 202.074219 257.777344 C 211.480469 263.421875 236.722656 262.632812 255.371094 242.378906 C 268.910156 228.773438 264.375 206.054688 256.640625 200.023438 C 245.148438 193.066406 228.65625 201.96875 213.230469 215.605469 L 213.230469 215.609375 "/>
</g>
</svg>
