<?xml version="1.0" encoding="UTF-8"?>
<svg xmlns="http://www.w3.org/2000/svg" xmlns:xlink="http://www.w3.org/1999/xlink" width="300px" height="383px" viewBox="0 0 300 383" version="1.1">
<g id="surface1">
<path style=" stroke:none;fill-rule:nonzero;fill:rgb(0%,0%,0%);fill-opacity:1;" d="M 81.207031 0.00390625 C 79.273438 0.0664062 77.1875 0.78125 74.820312 2.648438 C 69.023438 0.414062 63.402344 -0.363281 58.375 4.183594 C 50.613281 3.179688 48.089844 5.253906 46.179688 7.679688 C 44.476562 7.644531 33.429688 5.929688 28.363281 13.480469 C 15.636719 11.976562 11.613281 20.960938 16.171875 29.34375 C 13.570312 33.367188 10.878906 37.339844 16.957031 45.007812 C 14.808594 49.277344 16.140625 53.910156 21.207031 59.515625 C 19.871094 65.523438 22.496094 69.757812 27.210938 73.058594 C 26.328125 81.273438 34.75 86.050781 37.265625 87.753906 C 38.230469 92.539062 40.242188 97.058594 49.859375 99.554688 C 51.445312 106.6875 57.226562 107.921875 62.824219 109.417969 C 44.324219 120.164062 28.460938 134.304688 28.566406 169 L 25.855469 173.832031 C 4.644531 186.722656 -14.441406 228.160156 15.402344 261.839844 C 17.351562 272.382812 20.621094 279.953125 23.53125 288.335938 C 27.886719 322.105469 56.300781 337.921875 63.796875 339.789062 C 74.777344 348.148438 86.472656 356.082031 102.304688 361.640625 C 117.222656 377.019531 133.386719 382.878906 149.640625 382.871094 C 149.878906 382.871094 182.777344 377.019531 197.699219 361.640625 C 213.527344 356.082031 225.222656 348.148438 236.207031 339.789062 C 243.699219 337.921875 272.113281 322.105469 276.46875 288.335938 C 279.378906 279.953125 282.648438 272.382812 284.597656 261.839844 C 314.441406 228.15625 295.355469 186.71875 274.144531 173.824219 L 271.429688 168.996094 C 271.539062 134.304688 255.671875 120.164062 237.171875 109.414062 C 242.769531 107.917969 248.550781 106.683594 250.136719 99.550781 C 259.753906 97.050781 261.765625 92.535156 262.730469 87.746094 C 265.246094 86.046875 273.664062 81.269531 272.785156 73.054688 C 277.496094 69.753906 280.125 65.515625 278.789062 59.511719 C 283.855469 53.90625 285.1875 49.273438 283.039062 45.003906 C 289.121094 37.339844 286.421875 33.363281 283.824219 29.34375 C 288.382812 20.960938 284.359375 11.972656 271.625 13.480469 C 266.5625 5.925781 255.519531 7.640625 253.8125 7.675781 C 251.902344 5.253906 249.378906 3.175781 241.617188 4.183594 C 236.59375 -0.363281 230.972656 0.410156 225.175781 2.644531 C 218.289062 -2.78125 213.738281 1.566406 208.535156 3.214844 C 200.199219 0.492188 198.292969 4.21875 194.199219 5.738281 C 185.109375 3.820312 182.347656 7.996094 177.992188 12.410156 L 172.921875 12.308594 C 159.214844 20.382812 152.402344 36.820312 149.988281 45.273438 C 147.574219 36.820312 140.777344 20.378906 127.070312 12.308594 L 122.003906 12.410156 C 117.640625 7.996094 114.878906 3.820312 105.789062 5.738281 C 101.695312 4.21875 99.796875 0.492188 91.457031 3.214844 C 88.039062 2.132812 84.898438 -0.109375 81.203125 0.00390625 L -12.890625 165.132812 "/>
<path style=" stroke:none;fill-rule:nonzero;fill:rgb(45.882353%,66.27451%,15.686275%);fill-opacity:1;" d="M 53.914062 35.527344 C 90.285156 54.265625 111.429688 69.425781 123.015625 82.335938 C 117.082031 106.097656 86.136719 107.179688 74.820312 106.515625 C 77.136719 105.4375 79.070312 104.144531 79.753906 102.164062 C 76.914062 100.144531 66.847656 101.949219 59.820312 98.003906 C 62.519531 97.445312 63.78125 96.898438 65.046875 94.90625 C 58.40625 92.792969 51.253906 90.96875 47.046875 87.460938 C 49.316406 87.488281 51.433594 87.96875 54.398438 85.914062 C 48.453125 82.710938 42.105469 80.171875 37.175781 75.273438 C 40.25 75.199219 43.566406 75.246094 44.527344 74.113281 C 39.085938 70.742188 34.492188 66.996094 30.691406 62.894531 C 34.992188 63.414062 36.8125 62.96875 37.851562 62.21875 C 33.734375 58.007812 28.527344 54.449219 26.046875 49.257812 C 29.238281 50.359375 32.164062 50.78125 34.269531 49.164062 C 32.871094 46.011719 26.882812 44.152344 23.433594 36.785156 C 26.796875 37.109375 30.363281 37.515625 31.078125 36.785156 C 29.515625 30.425781 26.835938 26.851562 24.210938 23.148438 C 31.410156 23.042969 42.316406 23.175781 41.824219 22.570312 L 37.371094 18.023438 C 44.402344 16.132812 51.597656 18.328125 56.824219 19.957031 C 59.167969 18.109375 56.78125 15.769531 53.917969 13.382812 C 59.894531 14.179688 65.296875 15.550781 70.179688 17.441406 C 72.785156 15.089844 68.484375 12.734375 66.402344 10.382812 C 75.636719 12.132812 79.546875 14.59375 83.433594 17.054688 C 86.257812 14.355469 83.597656 12.058594 81.695312 9.707031 C 88.65625 12.28125 92.242188 15.609375 96.015625 18.894531 C 97.296875 17.167969 99.269531 15.902344 96.886719 11.738281 C 101.828125 14.585938 105.554688 17.941406 108.308594 21.699219 C 111.367188 19.753906 110.128906 17.089844 110.144531 14.636719 C 115.28125 18.8125 118.542969 23.257812 122.535156 27.597656 C 123.335938 27.011719 124.039062 25.03125 124.664062 21.890625 C 136.917969 33.773438 154.234375 63.703125 129.113281 75.566406 C 107.734375 57.945312 82.203125 45.136719 53.90625 35.53125 L 53.914062 35.527344 M 246.898438 35.527344 C 210.53125 54.265625 189.386719 69.421875 177.804688 82.335938 C 183.738281 106.097656 214.683594 107.179688 226 106.515625 C 223.679688 105.4375 221.75 104.144531 221.0625 102.164062 C 223.902344 100.144531 233.96875 101.949219 241 98.003906 C 238.296875 97.445312 237.035156 96.898438 235.773438 94.90625 C 242.414062 92.792969 249.566406 90.96875 253.773438 87.460938 C 251.503906 87.488281 249.382812 87.96875 246.417969 85.914062 C 252.367188 82.710938 258.714844 80.171875 263.644531 75.273438 C 260.570312 75.199219 257.253906 75.246094 256.289062 74.113281 C 261.734375 70.742188 266.328125 66.996094 270.128906 62.894531 C 265.824219 63.414062 264.007812 62.96875 262.96875 62.21875 C 267.082031 58.007812 272.289062 54.449219 274.773438 49.257812 C 271.578125 50.359375 268.65625 50.78125 266.546875 49.164062 C 267.945312 46.011719 273.9375 44.152344 277.386719 36.785156 C 274.023438 37.109375 270.453125 37.515625 269.742188 36.785156 C 271.304688 30.425781 273.984375 26.847656 276.613281 23.144531 C 269.414062 23.039062 258.503906 23.175781 259 22.566406 L 263.449219 18.019531 C 256.417969 16.128906 249.222656 18.324219 244 19.957031 C 241.652344 18.105469 244.039062 15.765625 246.902344 13.378906 C 240.925781 14.175781 235.523438 15.550781 230.644531 17.441406 C 228.035156 15.085938 232.335938 12.734375 234.417969 10.382812 C 225.183594 12.128906 221.273438 14.589844 217.386719 17.054688 C 214.5625 14.351562 217.222656 12.054688 219.128906 9.703125 C 212.164062 12.28125 208.578125 15.609375 204.804688 18.890625 C 203.523438 17.164062 201.554688 15.898438 203.933594 11.734375 C 198.992188 14.582031 195.269531 17.9375 192.515625 21.695312 C 189.457031 19.75 190.691406 17.089844 190.675781 14.636719 C 185.539062 18.8125 182.277344 23.253906 178.289062 27.59375 C 177.484375 27.011719 176.78125 25.027344 176.160156 21.886719 C 163.902344 33.769531 146.585938 63.699219 171.707031 75.566406 C 193.074219 57.941406 218.605469 45.132812 246.902344 35.527344 L 246.898438 35.527344 "/>
<path style=" stroke:none;fill-rule:nonzero;fill:rgb(73.72549%,6.666667%,25.882353%);fill-opacity:1;" d="M 194.453125 277.480469 C 194.578125 299.65625 175.175781 317.726562 151.117188 317.839844 C 127.054688 317.957031 107.449219 300.078125 107.320312 277.90625 C 107.320312 277.765625 107.320312 277.625 107.320312 277.480469 C 107.195312 255.308594 126.597656 237.242188 150.65625 237.125 C 174.71875 237.007812 194.324219 254.886719 194.453125 277.058594 L 194.453125 277.480469 M 125.679688 162.792969 C 143.730469 174.613281 146.984375 201.40625 132.945312 222.632812 C 118.910156 243.863281 92.894531 251.492188 74.84375 239.671875 C 56.792969 227.851562 53.539062 201.058594 67.578125 179.832031 C 81.613281 158.601562 107.628906 150.972656 125.679688 162.792969 M 174.402344 160.652344 C 156.351562 172.472656 153.097656 199.265625 167.132812 220.492188 C 181.171875 241.722656 207.183594 249.351562 225.234375 237.53125 C 243.289062 225.710938 246.542969 198.921875 232.503906 177.691406 C 218.46875 156.464844 192.453125 148.835938 174.402344 160.652344 M 35.457031 182.117188 C 54.949219 176.894531 42.039062 262.695312 26.179688 255.65625 C 8.738281 241.632812 3.121094 200.574219 35.457031 182.117188 M 260.6875 181.046875 C 241.195312 175.828125 254.105469 261.628906 269.964844 254.589844 C 287.40625 240.570312 293.027344 199.503906 260.6875 181.046875 M 194.46875 117.152344 C 228.101562 111.480469 256.089844 131.449219 254.960938 167.898438 C 253.851562 181.871094 182.078125 119.234375 194.46875 117.152344 M 101.539062 116.085938 C 67.902344 110.410156 39.917969 130.382812 41.046875 166.828125 C 42.152344 180.800781 113.929688 118.164062 101.539062 116.085938 M 149.851562 107.585938 C 129.777344 107.0625 110.511719 122.472656 110.464844 131.414062 C 110.410156 142.273438 126.335938 153.394531 149.988281 153.675781 C 174.140625 153.847656 189.554688 144.777344 189.632812 133.566406 C 189.71875 120.867188 167.664062 107.386719 149.851562 107.582031 L 149.851562 107.585938 M 151.078125 330.3125 C 168.582031 329.550781 192.0625 335.945312 192.109375 344.433594 C 192.402344 352.671875 170.8125 371.292969 149.917969 370.933594 C 128.277344 371.867188 107.058594 353.21875 107.335938 346.753906 C 107.011719 337.277344 133.683594 329.878906 151.078125 330.3125 M 86.433594 280.019531 C 98.894531 295.019531 104.574219 321.378906 94.175781 329.148438 C 84.335938 335.082031 60.445312 332.636719 43.464844 308.257812 C 32.011719 287.800781 33.488281 266.984375 41.53125 260.867188 C 53.554688 253.546875 72.132812 263.4375 86.433594 280.019531 M 213.230469 275.261719 C 199.746094 291.042969 192.242188 319.828125 202.074219 329.097656 C 211.480469 336.300781 236.722656 335.292969 255.371094 309.4375 C 268.910156 292.070312 264.375 263.066406 256.640625 255.363281 C 245.148438 246.484375 228.65625 257.847656 213.230469 275.257812 L 213.230469 275.261719 "/>
</g>
</svg>
