<?xml version="1.0" standalone="yes"?>
<svg xmlns="http://www.w3.org/2000/svg" width="300" height="300">
<path style="fill:#ffffff; stroke:none;" d="M0 0L0 300L300 300L300 0L0 0z"/>
<path style="fill:#c3c3c3; stroke:none;" d="M39 67L39 233C40.6611 229.041 40 224.26 40 220L40 195L40 109L40 81C40 76.4645 40.7688 71.2151 39 67z"/>
<path style="fill:#818181; stroke:none;" d="M40 67C44.4688 68.8752 50.1913 68 55 68L86 68C81.5312 66.1248 75.8087 67 71 67L40 67z"/>
<path style="fill:#9e9e9e; stroke:none;" d="M86 67C87.769 67.7789 89.0359 67.9124 91 68C89.231 67.2211 87.964 67.0876 86 67z"/>
<path style="fill:#c8c8c8; stroke:none;" d="M91 67C92.7691 67.7789 94.0359 67.9124 96 68C94.231 67.2211 92.9641 67.0876 91 67z"/>
<path style="fill:#f4eeee; stroke:none;" d="M157 67L157 233C158.769 228.785 158 223.536 158 219L158 191L158 105L158 80C158 75.7397 158.661 70.9586 157 67z"/>
<path style="fill:#c17373; stroke:none;" d="M158 67C162.469 68.8752 168.191 68 173 68L204 68C199.531 66.1248 193.809 67 189 67L158 67z"/>
<path style="fill:#c99797; stroke:none;" d="M204 67C206.052 67.8743 207.747 67.9528 210 68C207.948 67.1258 206.253 67.0472 204 67z"/>
<path style="fill:#e2caca; stroke:none;" d="M210 67C211.769 67.7789 213.036 67.9124 215 68C213.231 67.2211 211.964 67.0876 210 67z"/>
<path style="fill:#313131; stroke:none;" d="M40 68L40 232L66 232L66 166C68.7987 166.002 72.2717 165.543 74.787 167.028C79.6908 169.923 82.3036 179.101 84.7531 184C89.9573 194.408 95.5492 204.592 100.753 215C103.093 219.679 105.173 226.727 108.966 230.397C111.248 232.604 115.096 231.999 118 232L141 232C131.071 208.158 116.036 185.852 104 163C107.2 162.719 110.073 162.064 113 160.672C133.482 150.932 131.001 126.841 131 108C130.999 97.4849 130.593 85.1202 122.815 77.1049C117.168 71.2861 109.512 70.6087 102 69.196C82.2044 65.4729 60.1238 68 40 68z"/>
<path style="fill:#737373; stroke:none;" d="M98.6667 68.3333C98.2222 68.7778 99.2778 68.7222 99.3333 68.6667C99.7778 68.2222 98.7222 68.2778 98.6667 68.3333z"/>
<path style="fill:#929292; stroke:none;" d="M100 68C101.248 68.6848 101.548 68.7488 103 69C101.752 68.3152 101.451 68.2512 100 68z"/>
<path style="fill:#dddddd; stroke:none;" d="M103.667 68.3333C103.222 68.7778 104.278 68.7222 104.333 68.6667C104.778 68.2222 103.722 68.2778 103.667 68.3333z"/>
<path style="fill:#ab4848; stroke:none;" d="M158 68L158 232C159.661 228.041 159 223.26 159 219L159 195L159 110L159 82C159 77.4645 159.769 72.2152 158 68z"/>
<path style="fill:#991b1b; stroke:none;" d="M159 68L159 232L185 232L185 166C187.704 166.002 191.216 165.5 193.61 167.028C198.259 169.995 200.852 179.211 203.247 184L218.753 215C221.138 219.771 223.242 225.724 226.904 229.682C229.535 232.526 233.458 231.998 237 232L259 232C256.668 224.629 251.981 217.789 248.309 211C239.8 195.269 229.873 179.509 223 163C226.489 162.321 229.896 161.703 232.999 159.867C251.749 148.772 249 127.637 249 109C249 97.3727 249.418 84.7039 239.957 76.213C234.296 71.1329 227.145 70.3714 220 69C200.659 65.2877 178.678 68 159 68z"/>
<path style="fill:#b97272; stroke:none;" d="M217 68C218.248 68.6848 218.549 68.7488 220 69C218.752 68.3152 218.452 68.2512 217 68z"/>
<path style="fill:#d9b7b7; stroke:none;" d="M220.667 68.3333C220.222 68.7778 221.278 68.7222 221.333 68.6667C221.778 68.2222 220.722 68.2777 220.667 68.3333z"/>
<path style="fill:#4b4b4b; stroke:none;" d="M103 69C104.248 69.6848 104.548 69.7488 106 70C104.752 69.3153 104.451 69.2512 103 69z"/>
<path style="fill:#a3a3a3; stroke:none;" d="M106 69C107.248 69.6848 107.548 69.7488 109 70C107.752 69.3153 107.451 69.2512 106 69z"/>
<path style="fill:#a73e3e; stroke:none;" d="M222 69C223.248 69.6848 223.548 69.7488 225 70C223.752 69.3152 223.452 69.2512 222 69z"/>
<path style="fill:#d8afaf; stroke:none;" d="M225.667 69.3333C225.222 69.7778 226.278 69.7222 226.333 69.6667C226.778 69.2222 225.722 69.2778 225.667 69.3333z"/>
<path style="fill:#717171; stroke:none;" d="M110 70L111 71L110 70z"/>
<path style="fill:#a6a6a6; stroke:none;" d="M111 70L112 71L111 70z"/>
<path style="fill:#af5555; stroke:none;" d="M228 70L229 71L228 70z"/>
<path style="fill:#c38989; stroke:none;" d="M229 70L230 71L229 70z"/>
<path style="fill:#6b6b6b; stroke:none;" d="M113 71L114 72L113 71z"/>
<path style="fill:#a8a8a8; stroke:none;" d="M114 71L115 72L114 71z"/>
<path style="fill:#c48787; stroke:none;" d="M232 71L233 72L232 71z"/>
<path style="fill:#8b8b8b; stroke:none;" d="M116 72L117 73L116 72z"/>
<path style="fill:#b56565; stroke:none;" d="M234 72L235 73L234 72z"/>
<path style="fill:#dab8b8; stroke:none;" d="M235 72L236 73L235 72z"/>
<path style="fill:#909090; stroke:none;" d="M118 73L119 74L118 73z"/>
<path style="fill:#b56565; stroke:none;" d="M236 73L237 74L236 73z"/>
<path style="fill:#dfc2c2; stroke:none;" d="M237 73L238 74L237 73z"/>
<path style="fill:#bebebe; stroke:none;" d="M120 74L121 75L120 74z"/>
<path style="fill:#c78f8f; stroke:none;" d="M238 74L239 75L238 74z"/>
<path style="fill:#9d9d9d; stroke:none;" d="M121 75L122 76L121 75z"/>
<path style="fill:#b66a6a; stroke:none;" d="M239 75L240 76L239 75z"/>
<path style="fill:#898989; stroke:none;" d="M122 76L123 77L122 76z"/>
<path style="fill:#ad4e4e; stroke:none;" d="M240 76L241 77L240 76z"/>
<path style="fill:#929292; stroke:none;" d="M123 77L124 78L123 77z"/>
<path style="fill:#af5757; stroke:none;" d="M241 77L242 78L241 77z"/>
<path style="fill:#a1a1a1; stroke:none;" d="M124 78L125 79L124 78z"/>
<path style="fill:#b36464; stroke:none;" d="M242 78L243 79L242 78z"/>
<path style="fill:#cacaca; stroke:none;" d="M125 79L126 80L125 79z"/>
<path style="fill:#c68d8d; stroke:none;" d="M243 79L244 80L243 79z"/>
<path style="fill:#696969; stroke:none;" d="M125 80L126 81L125 80z"/>
<path style="fill:#dec3c3; stroke:none;" d="M244 80L245 81L244 80z"/>
<path style="fill:#9b9b9b; stroke:none;" d="M126 81L127 82L126 81z"/>
<path style="fill:#b05858; stroke:none;" d="M244 81L245 82L244 81z"/>
<path style="fill:#d2a7a7; stroke:none;" d="M245 82L246 83L245 82z"/>
<path style="fill:#999999; stroke:none;" d="M127 83L128 84L127 83z"/>
<path style="fill:#ae5454; stroke:none;" d="M245 83L246 84L245 83z"/>
<path style="fill:#d4acac; stroke:none;" d="M246 84L247 85L246 84z"/>
<path style="fill:#a9a9a9; stroke:none;" d="M128 85L129 86L128 85z"/>
<path style="fill:#717171; stroke:none;" d="M128 86L129 87L128 86z"/>
<path style="fill:#cd9c9c; stroke:none;" d="M247 87L248 88L247 87z"/>
<path style="fill:#7b7b7b; stroke:none;" d="M129.333 88.6667C129.278 88.7222 129.222 89.7778 129.667 89.3333C129.722 89.2777 129.778 88.2222 129.333 88.6667z"/>
<path style="fill:#a33838; stroke:none;" d="M247.333 88.6667C247.278 88.7222 247.222 89.7778 247.667 89.3333C247.722 89.2777 247.778 88.2223 247.333 88.6667z"/>
<path style="fill:#c88b8b; stroke:none;" d="M248 90L248 93C248.696 91.4463 248.696 91.5537 248 90z"/>
<path style="fill:#b1b1b1; stroke:none;" d="M130.333 91.6667C130.278 91.7222 130.222 92.7778 130.667 92.3333C130.722 92.2777 130.778 91.2223 130.333 91.6667z"/>
<path style="fill:#838383; stroke:none;" d="M67 92C74.1686 95.0081 85.239 93 93 93C85.8314 89.9919 74.761 92 67 92z"/>
<path style="fill:#c17676; stroke:none;" d="M185 92C191.928 94.9071 202.503 93 210 93C203.072 90.0929 192.497 92 185 92z"/>
<path style="fill:#a74a4a; stroke:none;" d="M210.667 92.3333C210.222 92.7778 211.278 92.7222 211.333 92.6667C211.778 92.2223 210.722 92.2777 210.667 92.3333z"/>
<path style="fill:#535353; stroke:none;" d="M66 93L66 141C67.552 137.301 67 132.983 67 129L67 106C67 101.74 67.6611 96.9586 66 93z"/>
<path style="fill:#e5e5e5; stroke:none;" d="M67 93L67 141C68.552 137.301 68 132.983 68 129L68 106C68 101.74 68.6611 96.9586 67 93z"/>
<path style="fill:#ffffff; stroke:none;" d="M68 93L68 141C76.9865 141 92.0512 143.802 99.6559 137.995C102.905 135.513 102.975 131.745 102.999 128C103.049 120.338 103.103 112.661 102.996 105C102.948 101.523 102.73 98.0517 99.7716 95.7276C92.5097 90.0222 76.6935 93 68 93z"/>
<path style="fill:#b2b2b2; stroke:none;" d="M94.6667 93.3333C94.2222 93.7778 95.2778 93.7222 95.3333 93.6667C95.7777 93.2223 94.7222 93.2778 94.6667 93.3333z"/>
<path style="fill:#828282; stroke:none;" d="M96 93L97 94L96 93z"/>
<path style="fill:#707070; stroke:none;" d="M130 93L130 96C130.696 94.4463 130.696 94.5537 130 93z"/>
<path style="fill:#d5afaf; stroke:none;" d="M185 93L185 141C186.552 137.301 186 132.983 186 129L186 106C186 101.74 186.661 96.9586 185 93z"/>
<path style="fill:#ffffff; stroke:none;" d="M186 93L186 141C194.717 141 210.479 143.969 217.772 138.272C220.573 136.085 221.459 132.368 221.826 129C222.641 121.531 222.185 113.508 221.985 106C221.881 102.08 221.232 98.2161 217.867 95.7276C210.274 90.114 194.934 93 186 93z"/>
<path style="fill:#dab7b7; stroke:none;" d="M212 93C213.248 93.6848 213.548 93.7488 215 94C213.752 93.3152 213.452 93.2512 212 93z"/>
<path style="fill:#ebd8d8; stroke:none;" d="M249 93L249 96C249.696 94.4463 249.696 94.5537 249 93z"/>
<path style="fill:#b0b0b0; stroke:none;" d="M98 94L99 95L98 94z"/>
<path style="fill:#646464; stroke:none;" d="M99 94L100 95L99 94z"/>
<path style="fill:#e0c5c5; stroke:none;" d="M216 94L217 95L216 94z"/>
<path style="fill:#bb7575; stroke:none;" d="M217 94L218 95L217 94z"/>
<path style="fill:#909090; stroke:none;" d="M100 95L101 96L100 95z"/>
<path style="fill:#d7b3b3; stroke:none;" d="M218 95L219 96L218 95z"/>
<path style="fill:#999999; stroke:none;" d="M101 96L102 97L101 96z"/>
<path style="fill:#4b4b4b; stroke:none;" d="M130.333 96.6667C130.278 96.7222 130.222 97.7778 130.667 97.3333C130.722 97.2777 130.778 96.2223 130.333 96.6667z"/>
<path style="fill:#e0c5c5; stroke:none;" d="M219 96L220 97L219 96z"/>
<path style="fill:#cda1a1; stroke:none;" d="M249.333 96.6667C249.278 96.7222 249.222 97.7778 249.667 97.3333C249.722 97.2777 249.778 96.2223 249.333 96.6667z"/>
<path style="fill:#737373; stroke:none;" d="M102 97L103 98L102 97z"/>
<path style="fill:#b8b8b8; stroke:none;" d="M131 97L131 134C132.441 130.565 132 126.702 132 123C132 115.256 134.004 104.159 131 97z"/>
<path style="fill:#d0a3a3; stroke:none;" d="M220 97L221 98L220 97z"/>
<path style="fill:#c5c5c5; stroke:none;" d="M102 98L103 99L102 98z"/>
<path style="fill:#ae5656; stroke:none;" d="M221 98L222 99L221 98z"/>
<path style="fill:#ba6b6b; stroke:none;" d="M249 98L249 133C250.441 129.565 250 125.702 250 122C250 114.784 251.802 104.678 249 98z"/>
<path style="fill:#6d6d6d; stroke:none;" d="M103 99L104 100L103 99z"/>
<path style="fill:#e5d1d1; stroke:none;" d="M221.333 99.6667C221.278 99.7222 221.222 100.778 221.667 100.333C221.722 100.278 221.778 99.2223 221.333 99.6667z"/>
<path style="fill:#bebebe; stroke:none;" d="M103.333 100.667C103.278 100.722 103.222 101.778 103.667 101.333C103.722 101.278 103.778 100.222 103.333 100.667z"/>
<path style="fill:#a84545; stroke:none;" d="M222.333 100.667C222.278 100.722 222.222 101.778 222.667 101.333C222.722 101.278 222.778 100.222 222.333 100.667z"/>
<path style="fill:#e9e9e9; stroke:none;" d="M103 102L103 130C105.604 123.793 105.604 108.207 103 102z"/>
<path style="fill:#5b5b5b; stroke:none;" d="M104 102L104 130C106.604 123.793 106.604 108.207 104 102z"/>
<path style="fill:#c38989; stroke:none;" d="M222 102L222 130C224.604 123.793 224.604 108.207 222 102z"/>
<path style="fill:#b8b8b8; stroke:none;" d="M103 130L103 133C103.696 131.446 103.696 131.554 103 130z"/>
<path style="fill:#a63c3c; stroke:none;" d="M222 130L222 133C222.696 131.446 222.696 131.554 222 130z"/>
<path style="fill:#e6d4d4; stroke:none;" d="M221 131L221 134C221.696 132.446 221.696 132.554 221 131z"/>
<path style="fill:#494949; stroke:none;" d="M103.333 133.667C103.278 133.722 103.222 134.778 103.667 134.333C103.722 134.278 103.778 133.222 103.333 133.667z"/>
<path style="fill:#d4b2b2; stroke:none;" d="M249.333 133.667C249.278 133.722 249.222 134.778 249.667 134.333C249.722 134.278 249.778 133.222 249.333 133.667z"/>
<path style="fill:#666666; stroke:none;" d="M130 134L130 137C130.696 135.446 130.696 135.554 130 134z"/>
<path style="fill:#b86c6c; stroke:none;" d="M221 134L222 135L221 134z"/>
<path style="fill:#989898; stroke:none;" d="M102 135L103 136L102 135z"/>
<path style="fill:#e3cbcb; stroke:none;" d="M220 135L221 136L220 135z"/>
<path style="fill:#eddbdb; stroke:none;" d="M249.333 135.667C249.278 135.722 249.222 136.778 249.667 136.333C249.722 136.278 249.778 135.222 249.333 135.667z"/>
<path style="fill:#d3d3d3; stroke:none;" d="M101 136L102 137L101 136z"/>
<path style="fill:#b86e6e; stroke:none;" d="M220 136L221 137L220 136z"/>
<path style="fill:#676767; stroke:none;" d="M101 137L102 138L101 137z"/>
<path style="fill:#929292; stroke:none;" d="M130 137L131 138L130 137z"/>
<path style="fill:#c88e8e; stroke:none;" d="M219 137L220 138L219 137z"/>
<path style="fill:#cfcfcf; stroke:none;" d="M99 138L100 139L99 138z"/>
<path style="fill:#656565; stroke:none;" d="M100 138L101 139L100 138z"/>
<path style="fill:#dfdfdf; stroke:none;" d="M130.333 138.667C130.278 138.722 130.222 139.778 130.667 139.333C130.722 139.278 130.778 138.222 130.333 138.667z"/>
<path style="fill:#c28383; stroke:none;" d="M218 138L219 139L218 138z"/>
<path style="fill:#d2a4a4; stroke:none;" d="M248.333 138.667C248.278 138.722 248.222 139.778 248.667 139.333C248.722 139.278 248.778 138.222 248.333 138.667z"/>
<path style="fill:#d1d1d1; stroke:none;" d="M97 139L98 140L97 139z"/>
<path style="fill:#8e8e8e; stroke:none;" d="M98 139L99 140L98 139z"/>
<path style="fill:#d0a4a4; stroke:none;" d="M216 139L217 140L216 139z"/>
<path style="fill:#adadad; stroke:none;" d="M93 140C94.2484 140.685 94.5484 140.749 96 141C94.7517 140.315 94.4515 140.251 93 140z"/>
<path style="fill:#9c9c9c; stroke:none;" d="M129.333 140.667C129.278 140.722 129.222 141.778 129.667 141.333C129.722 141.278 129.778 140.222 129.333 140.667z"/>
<path style="fill:#cb9595; stroke:none;" d="M212 140C213.248 140.685 213.548 140.749 215 141C213.752 140.315 213.452 140.251 212 140z"/>
<path style="fill:#606060; stroke:none;" d="M67 141C74.1686 144.008 85.239 142 93 142C85.8314 138.992 74.761 141 67 141z"/>
<path style="fill:#b05050; stroke:none;" d="M185 141C192.409 144.109 203.975 142 212 142C204.591 138.891 193.025 141 185 141z"/>
<path style="fill:#af5555; stroke:none;" d="M247 141L248 142L247 141z"/>
<path style="fill:#cd9c9c; stroke:none;" d="M247 142L248 143L247 142z"/>
<path style="fill:#757575; stroke:none;" d="M128 143L129 144L128 143z"/>
<path style="fill:#b4b4b4; stroke:none;" d="M128 144L129 145L128 144z"/>
<path style="fill:#b86c6c; stroke:none;" d="M246 144L247 145L246 144z"/>
<path style="fill:#626262; stroke:none;" d="M127 145L128 146L127 145z"/>
<path style="fill:#ddc0c0; stroke:none;" d="M246 145L247 146L246 145z"/>
<path style="fill:#aeaeae; stroke:none;" d="M127 146L128 147L127 146z"/>
<path style="fill:#b66969; stroke:none;" d="M245 146L246 147L245 146z"/>
<path style="fill:#616161; stroke:none;" d="M126 147L127 148L126 147z"/>
<path style="fill:#ddbfbf; stroke:none;" d="M245 147L246 148L245 147z"/>
<path style="fill:#bababa; stroke:none;" d="M126 148L127 149L126 148z"/>
<path style="fill:#be7b7b; stroke:none;" d="M244 148L245 149L244 148z"/>
<path style="fill:#828282; stroke:none;" d="M125 149L126 150L125 149z"/>
<path style="fill:#d1a8a8; stroke:none;" d="M243 150L244 151L243 150z"/>
<path style="fill:#bababa; stroke:none;" d="M124 151L125 152L124 151z"/>
<path style="fill:#bf7b7b; stroke:none;" d="M242 151L243 152L242 151z"/>
<path style="fill:#9b9b9b; stroke:none;" d="M123 152L124 153L123 152z"/>
<path style="fill:#b15e5e; stroke:none;" d="M241 152L242 153L241 152z"/>
<path style="fill:#888888; stroke:none;" d="M122 153L123 154L122 153z"/>
<path style="fill:#aa4e4e; stroke:none;" d="M240 153L241 154L240 153z"/>
<path style="fill:#7b7b7b; stroke:none;" d="M121 154L122 155L121 154z"/>
<path style="fill:#e2cbcb; stroke:none;" d="M240 154L241 155L240 154z"/>
<path style="fill:#7b7b7b; stroke:none;" d="M120 155L121 156L120 155z"/>
<path style="fill:#e0c5c5; stroke:none;" d="M239 155L240 156L239 155z"/>
<path style="fill:#878787; stroke:none;" d="M119 156L120 157L119 156z"/>
<path style="fill:#ac5353; stroke:none;" d="M237 156L238 157L237 156z"/>
<path style="fill:#9d9d9d; stroke:none;" d="M118 157L119 158L118 157z"/>
<path style="fill:#b66767; stroke:none;" d="M236 157L237 158L236 157z"/>
<path style="fill:#bababa; stroke:none;" d="M117 158L118 159L117 158z"/>
<path style="fill:#c58b8b; stroke:none;" d="M235 158L236 159L235 158z"/>
<path style="fill:#858585; stroke:none;" d="M115 159L116 160L115 159z"/>
<path style="fill:#af5757; stroke:none;" d="M233 159L234 160L233 159z"/>
<path style="fill:#ddbfbf; stroke:none;" d="M234 159L235 160L234 159z"/>
<path style="fill:#696969; stroke:none;" d="M113 160L114 161L113 160z"/>
<path style="fill:#bdbdbd; stroke:none;" d="M114 160L115 161L114 160z"/>
<path style="fill:#ca9595; stroke:none;" d="M232 160L233 161L232 160z"/>
<path style="fill:#6c6c6c; stroke:none;" d="M111 161L112 162L111 161z"/>
<path style="fill:#b5b5b5; stroke:none;" d="M112 161L113 162L112 161z"/>
<path style="fill:#c89191; stroke:none;" d="M230 161L231 162L230 161z"/>
<path style="fill:#5f5f5f; stroke:none;" d="M108 162L109 163L108 162z"/>
<path style="fill:#959595; stroke:none;" d="M109 162L110 163L109 162z"/>
<path style="fill:#c8c8c8; stroke:none;" d="M110 162L111 163L110 162z"/>
<path style="fill:#a74141; stroke:none;" d="M225.667 162.333C225.222 162.778 226.278 162.722 226.333 162.667C226.778 162.222 225.722 162.278 225.667 162.333z"/>
<path style="fill:#bb7777; stroke:none;" d="M227 162L228 163L227 162z"/>
<path style="fill:#d7b0b0; stroke:none;" d="M228 162L229 163L228 162z"/>
<path style="fill:#4f4f4f; stroke:none;" d="M104.333 163.667C104.278 163.722 104.222 164.778 104.667 164.333C104.722 164.278 104.778 163.222 104.333 163.667z"/>
<path style="fill:#bcbcbc; stroke:none;" d="M105 163L105 165C106.635 164.455 106.455 164.635 107 163L105 163z"/>
<path style="fill:#d0a3a3; stroke:none;" d="M223 163L223 165C224.635 164.455 224.455 164.635 225 163L223 163z"/>
<path style="fill:#8a8a8a; stroke:none;" d="M105 165L106 166L105 165z"/>
<path style="fill:#535353; stroke:none;" d="M66 166L66 232C67.9806 227.28 67 221.08 67 216L67 184C67 178.381 68.1889 171.216 66 166z"/>
<path style="fill:#ababab; stroke:none;" d="M67 166C69.8897 167.213 72.8741 166.998 76 167C73.1103 165.787 70.1259 166.002 67 166z"/>
<path style="fill:#cecece; stroke:none;" d="M106 166L107 167L106 166z"/>
<path style="fill:#d5afaf; stroke:none;" d="M185 166L185 233C187.497 227.049 186 218.42 186 212L186 167L194 167C191.11 165.787 188.126 166.002 185 166z"/>
<path style="fill:#b15858; stroke:none;" d="M194 166L195 167L194 166z"/>
<path style="fill:#c89292; stroke:none;" d="M224 166L225 167L224 166z"/>
<path style="fill:#e5e5e5; stroke:none;" d="M67 167L67 233C68.9806 228.28 68 222.08 68 217L68 185C68 179.381 69.1889 172.216 67 167z"/>
<path style="fill:#8b8b8b; stroke:none;" d="M76 167L77 168L76 167z"/>
<path style="fill:#7d7d7d; stroke:none;" d="M106 167L107 168L106 167z"/>
<path style="fill:#ddc0c0; stroke:none;" d="M194 167L195 168L194 167z"/>
<path style="fill:#c3c3c3; stroke:none;" d="M107 168L108 169L107 168z"/>
<path style="fill:#b76b6b; stroke:none;" d="M195 168L196 169L195 168z"/>
<path style="fill:#c18282; stroke:none;" d="M225 168L226 169L225 168z"/>
<path style="fill:#8c8c8c; stroke:none;" d="M77 169L78 170L77 169z"/>
<path style="fill:#6f6f6f; stroke:none;" d="M107 169L108 170L107 169z"/>
<path style="fill:#dec1c1; stroke:none;" d="M195 169L196 170L195 169z"/>
<path style="fill:#e4cccc; stroke:none;" d="M226 169L227 170L226 169z"/>
<path style="fill:#b8b8b8; stroke:none;" d="M108 170L109 171L108 170z"/>
<path style="fill:#b76c6c; stroke:none;" d="M196 170L197 171L196 170z"/>
<path style="fill:#bb7474; stroke:none;" d="M226 170L227 171L226 170z"/>
<path style="fill:#8e8e8e; stroke:none;" d="M78 171L79 172L78 171z"/>
<path style="fill:#676767; stroke:none;" d="M108 171L109 172L108 171z"/>
<path style="fill:#dec1c1; stroke:none;" d="M196 171L197 172L196 171z"/>
<path style="fill:#e0c4c4; stroke:none;" d="M227 171L228 172L227 171z"/>
<path style="fill:#acacac; stroke:none;" d="M109 172L110 173L109 172z"/>
<path style="fill:#b86e6e; stroke:none;" d="M197 172L198 173L197 172z"/>
<path style="fill:#b66969; stroke:none;" d="M227 172L228 173L227 172z"/>
<path style="fill:#919191; stroke:none;" d="M79 173L80 174L79 173z"/>
<path style="fill:#dfc4c4; stroke:none;" d="M197 173L198 174L197 173z"/>
<path style="fill:#d8b7b7; stroke:none;" d="M228 173L229 174L228 173z"/>
<path style="fill:#a0a0a0; stroke:none;" d="M110 174L111 175L110 174z"/>
<path style="fill:#b97171; stroke:none;" d="M198 174L199 175L198 174z"/>
<path style="fill:#b15d5d; stroke:none;" d="M228 174L229 175L228 174z"/>
<path style="fill:#919191; stroke:none;" d="M80 175L81 176L80 175z"/>
<path style="fill:#e0c6c6; stroke:none;" d="M198 175L199 176L198 175z"/>
<path style="fill:#d3a9a9; stroke:none;" d="M229 175L230 176L229 175z"/>
<path style="fill:#939393; stroke:none;" d="M111 176L112 177L111 176z"/>
<path style="fill:#ba7272; stroke:none;" d="M199 176L200 177L199 176z"/>
<path style="fill:#939393; stroke:none;" d="M81 177L82 178L81 177z"/>
<path style="fill:#e1c7c7; stroke:none;" d="M199 177L200 178L199 177z"/>
<path style="fill:#cd9c9c; stroke:none;" d="M230 177L231 178L230 177z"/>
<path style="fill:#868686; stroke:none;" d="M112 178L113 179L112 178z"/>
<path style="fill:#ba7272; stroke:none;" d="M200 178L201 179L200 178z"/>
<path style="fill:#969696; stroke:none;" d="M82 179L83 180L82 179z"/>
<path style="fill:#cbcbcb; stroke:none;" d="M113 179L114 180L113 179z"/>
<path style="fill:#c68e8e; stroke:none;" d="M231 179L232 180L231 179z"/>
<path style="fill:#7a7a7a; stroke:none;" d="M113 180L114 181L113 180z"/>
<path style="fill:#bc7676; stroke:none;" d="M201 180L202 181L201 180z"/>
<path style="fill:#979797; stroke:none;" d="M83 181L84 182L83 181z"/>
<path style="fill:#c2c2c2; stroke:none;" d="M114 181L115 182L114 181z"/>
<path style="fill:#c08181; stroke:none;" d="M232 181L233 182L232 181z"/>
<path style="fill:#6e6e6e; stroke:none;" d="M114 182L115 183L114 182z"/>
<path style="fill:#bc7777; stroke:none;" d="M202 182L203 183L202 182z"/>
<path style="fill:#e3cbcb; stroke:none;" d="M233 182L234 183L233 182z"/>
<path style="fill:#989898; stroke:none;" d="M84 183L85 184L84 183z"/>
<path style="fill:#b4b4b4; stroke:none;" d="M115 183L116 184L115 183z"/>
<path style="fill:#ba7070; stroke:none;" d="M233 183L234 184L233 183z"/>
<path style="fill:#636363; stroke:none;" d="M115 184L116 185L115 184z"/>
<path style="fill:#bd7777; stroke:none;" d="M203 184L204 185L203 184z"/>
<path style="fill:#dec0c0; stroke:none;" d="M234 184L235 185L234 184z"/>
<path style="fill:#9a9a9a; stroke:none;" d="M85 185L86 186L85 185z"/>
<path style="fill:#a9a9a9; stroke:none;" d="M116 185L117 186L116 185z"/>
<path style="fill:#b56565; stroke:none;" d="M234 185L235 186L234 185z"/>
<path style="fill:#be7a7a; stroke:none;" d="M204 186L205 187L204 186z"/>
<path style="fill:#d7b4b4; stroke:none;" d="M235 186L236 187L235 186z"/>
<path style="fill:#9c9c9c; stroke:none;" d="M86 187L87 188L86 187z"/>
<path style="fill:#9d9d9d; stroke:none;" d="M117 187L118 188L117 187z"/>
<path style="fill:#af5959; stroke:none;" d="M235 187L236 188L235 187z"/>
<path style="fill:#bf7c7c; stroke:none;" d="M205 188L206 189L205 188z"/>
<path style="fill:#d2a7a7; stroke:none;" d="M236 188L237 189L236 188z"/>
<path style="fill:#9d9d9d; stroke:none;" d="M87 189L88 190L87 189z"/>
<path style="fill:#919191; stroke:none;" d="M118 189L119 190L118 189z"/>
<path style="fill:#d3d3d3; stroke:none;" d="M119 190L120 191L119 190z"/>
<path style="fill:#bf7d7d; stroke:none;" d="M206 190L207 191L206 190z"/>
<path style="fill:#cc9999; stroke:none;" d="M237 190L238 191L237 190z"/>
<path style="fill:#9d9d9d; stroke:none;" d="M88 191L89 192L88 191z"/>
<path style="fill:#828282; stroke:none;" d="M119 191L120 192L119 191z"/>
<path style="fill:#c9c9c9; stroke:none;" d="M120 192L121 193L120 192z"/>
<path style="fill:#c07d7d; stroke:none;" d="M207 192L208 193L207 192z"/>
<path style="fill:#c58989; stroke:none;" d="M238 192L239 193L238 192z"/>
<path style="fill:#a1a1a1; stroke:none;" d="M89 193L90 194L89 193z"/>
<path style="fill:#767676; stroke:none;" d="M120 193L121 194L120 193z"/>
<path style="fill:#c0c0c0; stroke:none;" d="M121 194L122 195L121 194z"/>
<path style="fill:#c18181; stroke:none;" d="M208 194L209 195L208 194z"/>
<path style="fill:#bf7d7d; stroke:none;" d="M239 194L240 195L239 194z"/>
<path style="fill:#a2a2a2; stroke:none;" d="M90 195L91 196L90 195z"/>
<path style="fill:#6d6d6d; stroke:none;" d="M121 195L122 196L121 195z"/>
<path style="fill:#e2caca; stroke:none;" d="M240 195L241 196L240 195z"/>
<path style="fill:#b3b3b3; stroke:none;" d="M122 196L123 197L122 196z"/>
<path style="fill:#c28484; stroke:none;" d="M209 196L210 197L209 196z"/>
<path style="fill:#b97070; stroke:none;" d="M240 196L241 197L240 196z"/>
<path style="fill:#a3a3a3; stroke:none;" d="M91 197L92 198L91 197z"/>
<path style="fill:#616161; stroke:none;" d="M122 197L123 198L122 197z"/>
<path style="fill:#dcbebe; stroke:none;" d="M241 197L242 198L241 197z"/>
<path style="fill:#a6a6a6; stroke:none;" d="M123 198L124 199L123 198z"/>
<path style="fill:#c28282; stroke:none;" d="M210 198L211 199L210 198z"/>
<path style="fill:#b46363; stroke:none;" d="M241 198L242 199L241 198z"/>
<path style="fill:#a6a6a6; stroke:none;" d="M92 199L93 200L92 199z"/>
<path style="fill:#d6b0b0; stroke:none;" d="M242 199L243 200L242 199z"/>
<path style="fill:#5c5c5c; stroke:none;" d="M93 200L94 201L93 200z"/>
<path style="fill:#9a9a9a; stroke:none;" d="M124 200L125 201L124 200z"/>
<path style="fill:#c48888; stroke:none;" d="M211 200L212 201L211 200z"/>
<path style="fill:#ae5454; stroke:none;" d="M242 200L243 201L242 200z"/>
<path style="fill:#a7a7a7; stroke:none;" d="M93 201L94 202L93 201z"/>
<path style="fill:#d0a5a5; stroke:none;" d="M243 201L244 202L243 201z"/>
<path style="fill:#5c5c5c; stroke:none;" d="M94 202L95 203L94 202z"/>
<path style="fill:#8f8f8f; stroke:none;" d="M125 202L126 203L125 202z"/>
<path style="fill:#c58a8a; stroke:none;" d="M212 202L213 203L212 202z"/>
<path style="fill:#a9a9a9; stroke:none;" d="M94 203L95 204L94 203z"/>
<path style="fill:#d1d1d1; stroke:none;" d="M126 203L127 204L126 203z"/>
<path style="fill:#ca9797; stroke:none;" d="M244 203L245 204L244 203z"/>
<path style="fill:#5e5e5e; stroke:none;" d="M95 204L96 205L95 204z"/>
<path style="fill:#818181; stroke:none;" d="M126 204L127 205L126 204z"/>
<path style="fill:#c58b8b; stroke:none;" d="M213 204L214 205L213 204z"/>
<path style="fill:#aaaaaa; stroke:none;" d="M95 205L96 206L95 205z"/>
<path style="fill:#c7c7c7; stroke:none;" d="M127 205L128 206L127 205z"/>
<path style="fill:#c48888; stroke:none;" d="M245 205L246 206L245 205z"/>
<path style="fill:#606060; stroke:none;" d="M96 206L97 207L96 206z"/>
<path style="fill:#737373; stroke:none;" d="M127 206L128 207L127 206z"/>
<path style="fill:#c68d8d; stroke:none;" d="M214 206L215 207L214 206z"/>
<path style="fill:#aeaeae; stroke:none;" d="M96 207L97 208L96 207z"/>
<path style="fill:#bcbcbc; stroke:none;" d="M128 207L129 208L128 207z"/>
<path style="fill:#bd7878; stroke:none;" d="M246 207L247 208L246 207z"/>
<path style="fill:#616161; stroke:none;" d="M97 208L98 209L97 208z"/>
<path style="fill:#6b6b6b; stroke:none;" d="M128 208L129 209L128 208z"/>
<path style="fill:#c79090; stroke:none;" d="M215 208L216 209L215 208z"/>
<path style="fill:#e1c8c8; stroke:none;" d="M247 208L248 209L247 208z"/>
<path style="fill:#aeaeae; stroke:none;" d="M97 209L98 210L97 209z"/>
<path style="fill:#b0b0b0; stroke:none;" d="M129 209L130 210L129 209z"/>
<path style="fill:#b86e6e; stroke:none;" d="M247 209L248 210L247 209z"/>
<path style="fill:#636363; stroke:none;" d="M98 210L99 211L98 210z"/>
<path style="fill:#5f5f5f; stroke:none;" d="M129 210L130 211L129 210z"/>
<path style="fill:#c89292; stroke:none;" d="M216 210L217 211L216 210z"/>
<path style="fill:#dbbbbb; stroke:none;" d="M248 210L249 211L248 210z"/>
<path style="fill:#afafaf; stroke:none;" d="M98 211L99 212L98 211z"/>
<path style="fill:#a3a3a3; stroke:none;" d="M130 211L131 212L130 211z"/>
<path style="fill:#b26161; stroke:none;" d="M248 211L249 212L248 211z"/>
<path style="fill:#656565; stroke:none;" d="M99 212L100 213L99 212z"/>
<path style="fill:#c89393; stroke:none;" d="M217 212L218 213L217 212z"/>
<path style="fill:#d5adad; stroke:none;" d="M249 212L250 213L249 212z"/>
<path style="fill:#b3b3b3; stroke:none;" d="M99 213L100 214L99 213z"/>
<path style="fill:#979797; stroke:none;" d="M131 213L132 214L131 213z"/>
<path style="fill:#ad5252; stroke:none;" d="M249 213L250 214L249 213z"/>
<path style="fill:#666666; stroke:none;" d="M100 214L101 215L100 214z"/>
<path style="fill:#ca9696; stroke:none;" d="M218 214L219 215L218 214z"/>
<path style="fill:#ce9f9f; stroke:none;" d="M250 214L251 215L250 214z"/>
<path style="fill:#b4b4b4; stroke:none;" d="M100 215L101 216L100 215z"/>
<path style="fill:#8b8b8b; stroke:none;" d="M132 215L133 216L132 215z"/>
<path style="fill:#676767; stroke:none;" d="M101 216L102 217L101 216z"/>
<path style="fill:#cfcfcf; stroke:none;" d="M133 216L134 217L133 216z"/>
<path style="fill:#cb9898; stroke:none;" d="M219 216L220 217L219 216z"/>
<path style="fill:#c99494; stroke:none;" d="M251 216L252 217L251 216z"/>
<path style="fill:#b5b5b5; stroke:none;" d="M101 217L102 218L101 217z"/>
<path style="fill:#7e7e7e; stroke:none;" d="M133 217L134 218L133 217z"/>
<path style="fill:#696969; stroke:none;" d="M102 218L103 219L102 218z"/>
<path style="fill:#c5c5c5; stroke:none;" d="M134 218L135 219L134 218z"/>
<path style="fill:#cb9999; stroke:none;" d="M220 218L221 219L220 218z"/>
<path style="fill:#c28585; stroke:none;" d="M252 218L253 219L252 218z"/>
<path style="fill:#b7b7b7; stroke:none;" d="M102 219L103 220L102 219z"/>
<path style="fill:#727272; stroke:none;" d="M134 219L135 220L134 219z"/>
<path style="fill:#6b6b6b; stroke:none;" d="M103 220L104 221L103 220z"/>
<path style="fill:#b9b9b9; stroke:none;" d="M135 220L136 221L135 220z"/>
<path style="fill:#cc9c9c; stroke:none;" d="M221 220L222 221L221 220z"/>
<path style="fill:#bc7474; stroke:none;" d="M253 220L254 221L253 220z"/>
<path style="fill:#bababa; stroke:none;" d="M103 221L104 222L103 221z"/>
<path style="fill:#666666; stroke:none;" d="M135 221L136 222L135 221z"/>
<path style="fill:#e0c3c3; stroke:none;" d="M254 221L255 222L254 221z"/>
<path style="fill:#6b6b6b; stroke:none;" d="M104 222L105 223L104 222z"/>
<path style="fill:#adadad; stroke:none;" d="M136 222L137 223L136 222z"/>
<path style="fill:#cd9e9e; stroke:none;" d="M222 222L223 223L222 222z"/>
<path style="fill:#b76a6a; stroke:none;" d="M254 222L255 223L254 222z"/>
<path style="fill:#bababa; stroke:none;" d="M104 223L105 224L104 223z"/>
<path style="fill:#dab9b9; stroke:none;" d="M255 223L256 224L255 223z"/>
<path style="fill:#6e6e6e; stroke:none;" d="M105 224L106 225L105 224z"/>
<path style="fill:#a0a0a0; stroke:none;" d="M137 224L138 225L137 224z"/>
<path style="fill:#cea0a0; stroke:none;" d="M223 224L224 225L223 224z"/>
<path style="fill:#b15d5d; stroke:none;" d="M255 224L256 225L255 224z"/>
<path style="fill:#bbbbbb; stroke:none;" d="M105 225L106 226L105 225z"/>
<path style="fill:#d3abab; stroke:none;" d="M256 225L257 226L256 225z"/>
<path style="fill:#707070; stroke:none;" d="M106 226L107 227L106 226z"/>
<path style="fill:#959595; stroke:none;" d="M138 226L139 227L138 226z"/>
<path style="fill:#cea0a0; stroke:none;" d="M224 226L225 227L224 226z"/>
<path style="fill:#ac5151; stroke:none;" d="M256 226L257 227L256 226z"/>
<path style="fill:#bebebe; stroke:none;" d="M106 227L107 228L106 227z"/>
<path style="fill:#ab4f4f; stroke:none;" d="M225 227L226 228L225 227z"/>
<path style="fill:#cd9d9d; stroke:none;" d="M257 227L258 228L257 227z"/>
<path style="fill:#707070; stroke:none;" d="M107 228L108 229L107 228z"/>
<path style="fill:#888888; stroke:none;" d="M139 228L140 229L139 228z"/>
<path style="fill:#d0a3a3; stroke:none;" d="M225 228L226 229L225 228z"/>
<path style="fill:#bfbfbf; stroke:none;" d="M107 229L108 230L107 229z"/>
<path style="fill:#cdcdcd; stroke:none;" d="M140 229L141 230L140 229z"/>
<path style="fill:#ac4f4f; stroke:none;" d="M226 229L227 230L226 229z"/>
<path style="fill:#c88f8f; stroke:none;" d="M258 229L259 230L258 229z"/>
<path style="fill:#727272; stroke:none;" d="M108 230L109 231L108 230z"/>
<path style="fill:#7a7a7a; stroke:none;" d="M140 230L141 231L140 230z"/>
<path style="fill:#d1a5a5; stroke:none;" d="M226 230L227 231L226 230z"/>
<path style="fill:#c1c1c1; stroke:none;" d="M108 231L109 232L108 231z"/>
<path style="fill:#b4b4b4; stroke:none;" d="M141.333 231.667C141.278 231.722 141.222 232.778 141.667 232.333C141.722 232.278 141.778 231.222 141.333 231.667z"/>
<path style="fill:#ac5050; stroke:none;" d="M227 231L228 232L227 231z"/>
<path style="fill:#c17373; stroke:none;" d="M259 231C249.592 233.781 237.79 232 228 232C233.568 235.208 245.466 233 252 233C254.061 233 260.205 233.92 259 231z"/>
<path style="fill:#818181; stroke:none;" d="M40 232C47.4089 235.109 58.9755 233 67 233C59.5911 229.891 48.0245 232 40 232M109 232C112.699 233.552 117.017 233 121 233L141 233C137.301 231.448 132.983 232 129 232L109 232z"/>
<path style="fill:#c17373; stroke:none;" d="M158 232C165.409 235.109 176.975 233 185 233C177.591 229.891 166.025 232 158 232z"/>
<path style="fill:#dbbaba; stroke:none;" d="M227 232L228 233L227 232z"/>
</svg>
