<svg id="svg" version="1.1" xmlns="http://www.w3.org/2000/svg" style="display: block;" viewBox="0 0 300 300"><path d="M0 0 C99 0 198 0 300 0 C300 99 300 198 300 300 C201 300 102 300 0 300 C0 201 0 102 0 0 Z " transform="translate(0,0)" style="fill: #FEFEFE;"/><path d="M0 0 C72 0 72 0 86 12 C90.70025981 19.87611103 92.31177788 27.59534162 92.30078125 36.671875 C92.30506638 37.47554504 92.3093515 38.27921509 92.31376648 39.10723877 C92.31947409 40.7980455 92.32003659 42.48887677 92.31567383 44.1796875 C92.31252518 46.72960643 92.33597804 49.27834991 92.36132812 51.828125 C92.41670123 65.79594871 91.39139787 78.20350016 81.30078125 88.78125 C76.46117388 93.21846305 71.71455063 96 65 96 C71.33833215 107.71696552 77.68198563 119.43093978 84.0625 131.125 C84.54396484 132.00849121 85.02542969 132.89198242 85.52148438 133.80224609 C88.14135452 138.60679491 90.77308007 143.40448618 93.41796875 148.1953125 C93.97540771 149.20835449 94.53284668 150.22139648 95.10717773 151.26513672 C96.1826593 153.21919195 97.26147245 155.17141813 98.34399414 157.12158203 C98.82344482 157.99411621 99.30289551 158.86665039 99.796875 159.765625 C100.43641113 160.92239746 100.43641113 160.92239746 101.08886719 162.10253906 C102 164 102 164 102 166 C91.11 166 80.22 166 69 166 C67.494375 162.82375 65.98875 159.6475 64.4375 156.375 C59.78523783 146.61733325 55.01643531 136.92114313 50.1875 127.25 C49.87384491 126.62019226 49.56018982 125.99038452 49.23703003 125.3414917 C45.66412958 118.17230718 42.00685847 111.07302917 38.05981445 104.10058594 C37 102 37 102 37 100 C34.03 100 31.06 100 28 100 C28 121.78 28 143.56 28 166 C18.76 166 9.52 166 0 166 C0 111.22 0 56.44 0 0 Z " transform="translate(158,67)" style="fill: #9A1F1F;"/><path d="M0 0 C74.8089172 0 74.8089172 0 85 10 C90.39942153 18.08615291 91.16001585 25.58255042 91.203125 35.05078125 C91.20882507 36.02355515 91.21452515 36.99632904 91.22039795 37.99858093 C91.2298269 40.05364908 91.23637355 42.10873221 91.24023438 44.16381836 C91.2499337 47.29112404 91.28097481 50.41777042 91.3125 53.54492188 C91.31903148 55.54687112 91.32428138 57.54882504 91.328125 59.55078125 C91.3404718 60.47812576 91.3528186 61.40547028 91.36553955 62.36091614 C91.33659648 70.88819495 89.10159652 77.04327748 84 84 C83.13375 85.2684375 83.13375 85.2684375 82.25 86.5625 C77.14718885 92.09054541 72.39761969 94.03797047 65 95 C82.28823487 128.34306471 82.28823487 128.34306471 100.890625 160.953125 C102 163 102 163 102 165 C91.11 165 80.22 165 69 165 C66.72222656 160.24722656 64.44445312 155.49445313 62.09765625 150.59765625 C60.63849377 147.59245731 59.17744006 144.58851581 57.70898438 141.58789062 C55.37873648 136.82580157 53.05634288 132.06090239 50.77807617 127.27368164 C48.94051585 123.4137111 47.0701095 119.57136119 45.17590141 115.73888969 C44.45949222 114.27468196 43.75507383 112.80454376 43.06303596 111.32866096 C42.09024774 109.25943826 41.07667488 107.21553983 40.05102539 105.17211914 C39.48476944 104.00185684 38.91851349 102.83159454 38.33509827 101.62586975 C35.57916068 97.93687357 35.57916068 97.93687357 27 98 C27 120.11 27 142.22 27 165 C18.09 165 9.18 165 0 165 C0 110.55 0 56.1 0 0 Z " transform="translate(40,68)" style="fill: #333333;"/><path d="M0 0 C4.29 -0.0825 8.58 -0.165 13 -0.25 C14.33675781 -0.28641602 15.67351562 -0.32283203 17.05078125 -0.36035156 C24.18365288 -0.42655486 29.01073864 -0.00243908 35 4 C37.4523985 7.67859774 37.32302898 10.51391913 37.3359375 14.7734375 C37.3425943 15.53419586 37.3492511 16.29495422 37.35610962 17.07876587 C37.36622923 18.68757715 37.37092685 20.29643036 37.37060547 21.90527344 C37.3749723 24.35943307 37.41127784 26.81178433 37.44921875 29.265625 C37.45508849 30.83072303 37.45905683 32.39582959 37.4609375 33.9609375 C37.47530853 34.69130219 37.48967957 35.42166687 37.50448608 36.17416382 C37.47351375 39.65061798 37.08867855 41.84570928 35.34619141 44.87744141 C30.88567162 48.91279614 26.33942764 49.25085169 20.5078125 49.1953125 C19.4264502 49.19031738 18.34508789 49.18532227 17.23095703 49.18017578 C15.87599121 49.16196777 14.52102539 49.14375977 13.125 49.125 C8.79375 49.08375 4.4625 49.0425 0 49 C0 32.83 0 16.66 0 0 Z " transform="translate(185,92)" style="fill: #FCF9F9;"/><path d="M0 0 C6.991875 -0.12375 6.991875 -0.12375 14.125 -0.25 C15.58437988 -0.28641602 17.04375977 -0.32283203 18.54736328 -0.36035156 C19.70993652 -0.3703418 20.87250977 -0.38033203 22.0703125 -0.390625 C23.84559326 -0.4220459 23.84559326 -0.4220459 25.65673828 -0.45410156 C30.5460271 0.20999054 33.56808196 2.56808196 37 6 C37.22425338 8.51088411 37.32810861 10.90834183 37.3359375 13.421875 C37.3425943 14.15948059 37.3492511 14.89708618 37.35610962 15.65704346 C37.36624407 17.22055568 37.37092639 18.78411122 37.37060547 20.34765625 C37.37495848 22.72730135 37.41120896 25.10506081 37.44921875 27.484375 C37.45509106 29.00520201 37.45905768 30.52603781 37.4609375 32.046875 C37.47530853 32.75334167 37.48967957 33.45980835 37.50448608 34.18768311 C37.45825361 39.25025295 36.254174 42.14993087 33 46 C29.64317795 48.50103853 26.35575633 48.23119084 22.265625 48.1953125 C21.09805664 48.19031738 19.93048828 48.18532227 18.72753906 48.18017578 C17.24995117 48.16196777 15.77236328 48.14375977 14.25 48.125 C9.5475 48.08375 4.845 48.0425 0 48 C0 32.16 0 16.32 0 0 Z " transform="translate(67,93)" style="fill: #FCFCFC;"/></svg>